<svg width="362" height="80" fill="none" xmlns="http://www.w3.org/2000/svg"><g filter="url(#a)"><ellipse cx="181" cy="47.5" rx="177" ry="24.5" fill="#fff"/></g><path d="M53 19C53 8.50659 61.5066 0 72 0h219c10.493 0 19 8.50659 19 19v10c0 10.4934-8.507 19-19 19H72c-10.4934 0-19-8.5066-19-19V19Z" fill="#E08455"/><path d="M40.6128 18.2221c.7797-8.83747 8.2963-15.54559 17.1652-15.31901L179 6l122.128-3.89772C311.452 1.77281 320 10.0523 320 20.3811c0 10.2285-8.389 18.4686-18.616 18.2853L180.5 36.5H57.3489c-9.8619 0-17.6029-8.4542-16.7361-18.2779Z" fill="#9B4E3E"/><path fill-rule="evenodd" clip-rule="evenodd" d="M46.7031 7c-3.6807 2.77092-6.2027 7.0308-6.6368 11.9506-.542 6.1428 2.2817 11.7501 6.885 15.0898.5362.3129 1.1004.603 1.6919.8593 2.3376 1.013 4.611 1.7405 6.8089 2.2756.4452.0353.8955.0532 1.3504.0532H179.954l120.884 2.1664c10.227.1833 18.616-8.0567 18.616-18.2852 0-.5985-.029-1.1901-.085-1.7735-.214.1378-.453.2863-.73.4572-.087.0535-.186.1142-.292.1788l-.001.0008c-.254.1555-.546.3343-.801.4937-.379.2368-.843.5326-1.307.8569-.435.3044-1.071.7727-1.71 1.3758-.03.0286-.337.3199-2.105.8315-.425.123-.868.2423-1.41.3874l-.05.0134c-.502.1345-1.096.2936-1.696.4667-1.234.356-2.788.8521-4.388 1.6096-3.324 1.575-7.615 2.2819-12.907 3.154l-.001.0002c-.895.1475-1.819.2997-2.771.4616-4.824.82-10.12.968-15.916.8669-2.13-.0371-4.516-.117-6.973-.1993-3.663-.1226-7.486-.2506-10.865-.2506-19.313 0-38.343-1.175-57.793-2.811-9.005-.7574-18.066-.8475-26.742-.9338-1.942-.0193-3.864-.0384-5.763-.0647-2.909-.0405-5.853-.3779-9.356-.7795l-.136-.0157c-3.404-.3901-7.353-.8388-11.439-.8388-1.77 0-3.264-.1147-5.087-.2547-1.023-.0786-2.15-.1652-3.487-.2439-2.005-.1179-4.059-.049-5.614.003-.272.0091-.529.0177-.768.0247-1.828.0536-3.026.04-4.033-.1039-.4-.0572-.807-.1159-1.22-.1754-4.576-.6603-9.891-1.4272-15.295-1.4272-1.741 0-3.464.0062-5.168.0122-9.3323.0333-18.1428.0646-26.7733-.9217-2.3293-.2662-4.5448-.424-6.5323-.5609l-.3979-.0274c-1.8781-.1291-3.5175-.2418-5.1284-.4125-3.28-.3473-6.0208-.8997-8.7379-2.0509-.0305-.0232-.0721-.0561-.1249-.1006-.253-.2128-.6078-.5586-1.078-1.0879-.4666-.5252-.9492-1.1193-1.5016-1.8164-.1066-.1346-.2217-.2805-.3426-.4339-.3485-.442-.7455-.9455-1.1287-1.4153-.0229-.0417-.0498-.0913-.0807-.1495-.1506-.2837-.2668-.5155-.4143-.8101-.1-.1996-.2144-.4279-.3637-.7206l-.0275-.0549c-.1646-.3292-.8336-1.6669-1.7014-2.72037-.2396-.29092-1.0559-1.2752-2.4146-2.09354-.0301-.01813-.0615-.03668-.0941-.05559ZM51 15.0894c0 .019 0 .0437-.0003.0737L51 15.0894Z" fill="#7F392F"/><rect x="53" y="13" width="257" height="48" rx="19" fill="#F9A96E"/><path d="m86.0034 45.8789 9-8m.0757 9.3051-9-7m-.0757-12.3051 9-8m.0757 9.3051-9-7" stroke="#3E0B2E" stroke-width="3"/><path d="M53.0107 31.6837c-.0071.2133-.0107.4275-.0107.6425v10c0 10.4935 8.5066 19 19 19h219c10.493 0 19-8.5065 19-19v-9.9999c0-.7876-.048-1.5639-.141-2.3263-1.896 2.3154-3.797 4.5386-5.756 6.657-.687.4336-1.372.8213-2.061 1.1609-3.076 1.5165-5.862 2.6764-8.542 3.3356-4.268 1.0494-8.175 1.9883-11.734 2.3745-9.854 1.0694-19.949 1.2798-30.37 1.4969-.939.0196-1.881.0392-2.826.0595-7.129.1533-14.232.4563-21.232.7612l-.972.0423c-6.697.292-13.298.5797-19.894.7467-2.923.074-5.847.2296-8.624.3773-.467.0249-.93.0495-1.388.0735-3.243.1698-6.307.3113-9.33.3211-6.409.0209-12.804.1295-19.204.3196-2.491.074-5.033.1328-7.612.1925-8.813.204-18.052.4179-27.091 1.2787-3.864.368-7.843.9308-11.574 1.4584-1.683.2381-3.317.4691-4.866.6718-2.411.3155-4.781.7015-6.997 1.0631l-.075.0122c-2.231.3642-4.308.7031-6.378.9791-2.453.3271-4.5515.2382-7.3443.1199-1.4773-.0626-3.1489-.1334-5.1704-.1553-3.232-.0349-6.0694-.325-8.6977-1.0207-3.9712-1.0512-7.8657-2.4112-11.7626-4.0299-1.2344-.5128-2.1826-1.002-2.928-1.5041l-.0321-.0258c-.0426-.0346-.094-.077-.1815-.15l-.0329-.0274c-.0753-.0627-.1824-.152-.289-.2394-.3038-.2493-.7856-.6384-1.4207-1.0582-.071-.1023-.1526-.2211-.2507-.3643l-.0156-.0229c-.0986-.144-.2242-.3275-.3488-.5053-.1306-.1865-.3031-.4289-.4969-.6828-1.2832-1.6813-2.6066-3.2958-3.8365-4.789l-.3359-.4077c-1.1309-1.3723-2.1751-2.6395-3.18-3.9249-1.0754-1.3755-2.4709-2.3533-3.9987-2.9104Z" fill="#E18458" fill-opacity=".7"/><path d="M58.3787 26.3006c1.0622-1.9829 2.8741-3.5867 4.5192-5.0776.3363-.3048 1.0697-.3423 1.5121-.4897m10.8254-.464h.3093" stroke="#fff" stroke-width="4" stroke-linecap="round"/><defs><filter id="a" x="0" y="23" width="362" height="57" filterUnits="userSpaceOnUse" color-interpolation-filters="sRGB"><feFlood flood-opacity="0" result="BackgroundImageFix"/><feColorMatrix in="SourceAlpha" values="0 0 0 0 0 0 0 0 0 0 0 0 0 0 0 0 0 0 127 0" result="hardAlpha"/><feOffset dy="4"/><feGaussianBlur stdDeviation="2"/><feComposite in2="hardAlpha" operator="out"/><feColorMatrix values="0 0 0 0 0 0 0 0 0 0 0 0 0 0 0 0 0 0 0.25 0"/><feBlend in2="BackgroundImageFix" result="effect1_dropShadow_50_108"/><feBlend in="SourceGraphic" in2="effect1_dropShadow_50_108" result="shape"/></filter></defs></svg>